<svg width="18" height="18" viewBox="0 0 18 18" fill="none" xmlns="http://www.w3.org/2000/svg">
<path d="M0.295999 5.98199H4.02738V17.984H0.295999V5.98199ZM2.16179 0.0159912C3.35438 0.0159912 4.32358 0.985191 4.32358 2.17979C4.32358 3.37319 3.35438 4.34239 2.16179 4.34239C0.966395 4.34239 0 3.37319 0 2.17979C0 0.985191 0.966395 0.0159912 2.16179 0.0159912Z" fill="#2D2B32"/>
<path d="M6.36719 5.98198H9.94517V7.62318H9.99617C10.4942 6.67918 11.7114 5.68478 13.5256 5.68478C17.3029 5.68478 18.0001 8.16978 18.0001 11.4014V17.984H14.2716V12.1474C14.2716 10.7552 14.2473 8.96498 12.3332 8.96498C10.392 8.96498 10.0958 10.4824 10.0958 12.0474V17.984H6.36719V5.98198Z" fill="#2D2B32"/>
</svg>
