<svg width="34" height="34" viewBox="0 0 34 34" fill="none" xmlns="http://www.w3.org/2000/svg">
<path d="M0.746148 11.0045H7.62847V33.1427H0.746148V11.0045ZM4.18749 0C6.38716 0 8.17479 1.78773 8.17479 3.99122C8.17479 6.1925 6.38716 7.98023 4.18749 7.98023C1.98266 7.98023 0.200195 6.1925 0.200195 3.99122C0.200195 1.78773 1.98266 0 4.18749 0Z" fill="#2D2B32"/>
<path d="M11.9434 11.0047H18.5427V14.032H18.6368C19.5553 12.2908 21.8004 10.4565 25.1466 10.4565C32.1137 10.4565 33.3997 15.0402 33.3997 21.0011V33.1429H26.5225V22.3771C26.5225 19.8091 26.4779 16.507 22.9473 16.507C19.3668 16.507 18.8205 19.3059 18.8205 22.1926V33.1429H11.9434V11.0047Z" fill="#2D2B32"/>
</svg>
