<svg width="64" height="24" viewBox="0 0 64 24" fill="none" xmlns="http://www.w3.org/2000/svg">
<path d="M57.7182 2.14683H60.0563C60.2874 2.13888 60.5185 2.17151 60.7389 2.24324C60.8572 2.28107 60.9673 2.34432 61.0596 2.42864C61.1519 2.51174 61.2244 2.6143 61.2728 2.72896C61.3167 2.84757 61.3391 2.97316 61.3391 3.09977C61.3481 3.27273 61.3122 3.445 61.2352 3.60033C61.1528 3.75046 61.022 3.8686 60.8643 3.93592L60.816 3.95819C60.8903 3.98044 60.9647 4.00638 61.0372 4.03604C61.1178 4.07217 61.1868 4.1307 61.2352 4.20474C61.2845 4.27848 61.3122 4.36456 61.3149 4.45319C61.3266 4.62376 61.3149 4.79433 61.3149 4.9649V5.22629H60.4173V4.6701C60.4164 4.62968 60.4119 4.58944 60.4048 4.54961C60.3994 4.50555 60.3806 4.46441 60.3492 4.43278C60.3188 4.39985 60.2785 4.37882 60.2346 4.37348C60.1728 4.36233 60.1109 4.35673 60.0491 4.35678H58.597V5.22816H57.7012L57.7182 2.14683ZM58.6158 3.63003H59.904C59.9837 3.63008 60.0626 3.62449 60.1414 3.61332C60.205 3.60953 60.2659 3.58328 60.3125 3.53919C60.3582 3.49522 60.3878 3.43593 60.394 3.37229C60.403 3.29036 60.403 3.20768 60.394 3.12575C60.3842 3.06611 60.3564 3.01092 60.3143 2.96814C60.2704 2.92535 60.2149 2.898 60.1548 2.89028C60.1029 2.88231 60.0509 2.87796 59.999 2.87729H58.6248L58.6158 3.63003Z" fill="white"/>
<path d="M59.5034 7.37512C58.6497 7.37764 57.822 7.08392 57.1609 6.54403C56.4989 6.00414 56.0456 5.25152 55.8772 4.4146C55.7087 3.57768 55.8359 2.7083 56.2373 1.95474C56.6386 1.20118 57.289 0.610126 58.0773 0.282428C58.8656 -0.0452701 59.7426 -0.0893342 60.5605 0.157772C61.3775 0.404878 62.0834 0.927843 62.5582 1.63744C63.0321 2.34704 63.2462 3.19929 63.1629 4.04886C63.0787 4.89843 62.7033 5.69267 62.0996 6.29608C61.4098 6.98348 60.4772 7.37123 59.5034 7.37512ZM59.5034 0.439312C58.751 0.438477 58.0209 0.698795 57.4386 1.17589C56.8554 1.65298 56.4568 2.3173 56.3089 3.05564C56.162 3.79399 56.2749 4.56064 56.6296 5.22491C56.9835 5.88918 57.5577 6.40995 58.2529 6.69847C58.9489 6.98699 59.7229 7.02538 60.4432 6.80711C61.1634 6.58883 61.786 6.1274 62.2053 5.50147C62.6236 4.87554 62.8117 4.12384 62.7383 3.37453C62.6648 2.62521 62.3334 1.92464 61.8003 1.39225C61.1903 0.784841 60.3643 0.443045 59.5034 0.441168V0.439312Z" fill="white"/>
<path d="M45.0636 1.59811H38.0018C35.3305 1.59811 31.8018 2.35269 30.1222 4.66092L30.1051 4.68315L31.6701 6.52045C32.7917 7.98511 33.5424 9.21621 33.5424 9.21621L33.7762 8.99002C34.8888 7.77006 37.1839 7.34737 38.267 7.34737H44.3335C45.6065 7.34737 46.8275 7.85308 47.7269 8.75325C48.6272 9.65346 49.1333 10.8743 49.1333 12.1473V13.4451C49.1333 14.7182 48.6272 15.9391 47.7269 16.8393C46.8275 17.7394 45.6065 18.2452 44.3335 18.2452H39.8114C35.627 18.2452 35.145 16.2929 32.4289 11.6913C29.7128 7.08965 26.2477 1.59068 18.6314 1.59068H10.7553C7.9033 1.59068 5.16817 2.7236 3.15149 4.74022C1.1349 6.75684 0.00195312 9.49195 0.00195312 12.3439V13.2468C0.00195312 16.0987 1.1349 18.8338 3.15149 20.8504C5.16817 22.8671 7.9033 23.9999 10.7553 23.9999H17.1497C19.779 23.9999 23.0828 23.238 25.5794 20.2382C25.7873 20.0231 26.5774 18.9552 26.5774 18.9552L26.8614 18.5326C26.8614 18.5326 25.274 16.1056 23.8442 13.5712C22.2389 10.7272 21.1487 10.5845 20.5942 10.5845H12.1716V15.277H21.3476L21.4658 15.3975V15.5216C21.4658 16.2465 20.9964 16.8603 20.2591 17.3756C19.4627 17.9487 18.5033 18.2515 17.5224 18.2396H11.463C10.8351 18.2399 10.2125 18.1162 9.63197 17.8758C9.0513 17.6355 8.52366 17.283 8.07924 16.8387C7.63482 16.3942 7.28241 15.8666 7.04197 15.2859C6.80162 14.7053 6.678 14.0829 6.67826 13.4544V12.1251C6.678 11.4966 6.80162 10.8741 7.04197 10.2933C7.28232 9.71259 7.63474 9.18477 8.07915 8.74026C8.52348 8.29572 9.05112 7.9431 9.63197 7.70251C10.2125 7.46191 10.8351 7.33809 11.463 7.33809H19.1815C22.806 7.33809 24.4785 10.2081 26.6714 13.8919C28.8653 17.5758 32.0948 23.9944 39.806 23.9944H45.0636C47.9159 23.9944 50.6509 22.8614 52.6674 20.8449C54.6839 18.8283 55.8171 16.0932 55.8171 13.2412V12.3383C55.8135 9.48863 54.6794 6.75684 52.6629 4.74303C50.6464 2.72922 47.9132 1.5981 45.0636 1.59811Z" fill="white"/>
</svg>
