<svg width="710" height="120" viewBox="0 0 710 120" fill="none" xmlns="http://www.w3.org/2000/svg">
<g clip-path="url(#clip0_344_4764)">
<path d="M682.846 10.8116H694.421C695.565 10.772 696.709 10.9345 697.8 11.2917C698.385 11.4801 698.931 11.7951 699.388 12.2149C699.844 12.6288 700.204 13.1395 700.443 13.7105C700.66 14.3011 700.771 14.9265 700.771 15.557C700.815 16.4183 700.638 17.2762 700.257 18.0497C699.849 18.7973 699.201 19.3856 698.421 19.7208L698.181 19.8317C698.549 19.9425 698.917 20.0717 699.277 20.2194C699.676 20.3993 700.017 20.6908 700.257 21.0595C700.501 21.4267 700.638 21.8554 700.651 22.2967C700.709 23.1461 700.651 23.9955 700.651 24.8449V26.1466H696.208V23.3769C696.203 23.1756 696.181 22.9752 696.146 22.7769C696.119 22.5575 696.026 22.3526 695.871 22.1951C695.72 22.0311 695.52 21.9264 695.303 21.8998C694.997 21.8442 694.691 21.8164 694.385 21.8166H687.196V26.1559H682.762L682.846 10.8116ZM687.29 18.1976H693.667C694.061 18.1978 694.452 18.17 694.842 18.1144C695.157 18.0955 695.458 17.9648 695.689 17.7452C695.915 17.5263 696.061 17.231 696.093 16.9141C696.137 16.5061 696.137 16.0944 696.093 15.6864C696.044 15.3894 695.906 15.1146 695.698 14.9015C695.481 14.6885 695.206 14.5523 694.908 14.5138C694.651 14.4741 694.394 14.4525 694.137 14.4491H687.334L687.29 18.1976Z" fill="#5940BE"/>
<path d="M691.685 36.8472C687.458 36.8598 683.361 35.3971 680.088 32.7086C676.81 30.0201 674.566 26.2722 673.733 22.1046C672.899 17.9369 673.529 13.6076 675.516 9.85506C677.502 6.10254 680.722 3.15922 684.624 1.52736C688.527 -0.104495 692.869 -0.323923 696.918 0.906604C700.962 2.13713 704.457 4.74137 706.807 8.27499C709.153 11.8086 710.213 16.0526 709.8 20.2833C709.384 24.5139 707.525 28.469 704.536 31.4738C701.122 34.897 696.505 36.8278 691.685 36.8472ZM691.685 2.30861C687.959 2.30445 684.345 3.60076 681.463 5.97656C678.575 8.35238 676.602 11.6605 675.87 15.3373C675.143 19.0141 675.702 22.8318 677.458 26.1397C679.21 29.4476 682.052 32.0409 685.494 33.4777C688.939 34.9144 692.771 35.1056 696.337 34.0186C699.902 32.9317 702.984 30.6339 705.06 27.5169C707.131 24.3999 708.062 20.6567 707.698 16.9252C707.335 13.1938 705.694 9.70517 703.055 7.05398C700.035 4.02925 695.946 2.32719 691.685 2.31785V2.30861Z" fill="#5940BE"/>
<path d="M620.206 8.07897H585.247C572.022 8.07897 554.554 11.8366 546.239 23.331L546.155 23.4417L553.902 32.591C559.454 39.8846 563.171 46.0153 563.171 46.0153L564.328 44.8889C569.836 38.8137 581.198 36.7089 586.559 36.7089H616.591C622.893 36.7089 628.938 39.2272 633.39 43.7098C637.847 48.1926 640.353 54.2721 640.353 60.6115V67.0741C640.353 73.4136 637.847 79.4935 633.39 83.9763C628.938 88.4587 622.893 90.9773 616.591 90.9773H594.205C573.49 90.9773 571.104 81.2555 557.658 58.3405C544.212 35.4255 527.059 8.04199 489.355 8.04199H450.364C436.246 8.04199 422.705 13.6836 412.722 23.7259C402.739 33.7682 397.13 47.3883 397.13 61.5903V66.0865C397.13 80.2884 402.739 93.9086 412.722 103.951C422.705 113.993 436.246 119.635 450.364 119.635H482.02C495.035 119.635 511.391 115.84 523.75 100.902C524.779 99.831 528.691 94.5131 528.691 94.5131L530.096 92.4084C530.096 92.4084 522.238 80.3228 515.16 67.7022C507.213 53.5396 501.816 52.8289 499.071 52.8289H457.376V76.1964H502.801L503.386 76.7964V77.4146C503.386 81.0245 501.062 84.0807 497.412 86.6471C493.47 89.5007 488.72 91.0086 483.864 90.9497H453.868C450.759 90.951 447.677 90.335 444.803 89.1381C441.929 87.9412 439.317 86.1858 437.117 83.9732C434.916 81.7601 433.172 79.1326 431.982 76.241C430.792 73.3494 430.18 70.2503 430.181 67.1205V60.5009C430.18 57.3711 430.792 54.2712 431.982 51.3791C433.171 48.4871 434.916 45.8587 437.116 43.6451C439.316 41.4314 441.928 39.6755 444.803 38.4774C447.677 37.2793 450.759 36.6627 453.868 36.6627H492.077C510.02 36.6627 518.3 50.9544 529.156 69.2993C540.017 87.6441 556.004 119.607 594.178 119.607H620.206C634.326 119.607 647.865 113.965 657.848 103.923C667.83 93.881 673.44 80.2607 673.44 66.0588V61.5626C673.422 47.3718 667.808 33.7682 657.825 23.7399C647.843 13.7116 634.313 8.07893 620.206 8.07897Z" fill="#5940BE"/>
<path d="M31.7653 9.07593H0.330078V118.619H31.7653V9.07593Z" fill="black"/>
<path d="M384.345 9.07593H352.91V118.619H384.345V9.07593Z" fill="black"/>
<path d="M82.0254 41.0204V40.171L82.4651 40.6696L82.0254 41.0204Z" fill="black"/>
<path d="M161.297 9.14993V86.8042L160.893 87.1183C158.47 84.182 116.122 32.4988 96.9578 9.0575H50.4521V118.573H82.0616V40.2078C82.6305 40.8542 82.1809 40.6695 82.4931 40.6602C103.245 65.9478 125.575 93.2856 146.272 118.601H192.695V9.14993H161.297Z" fill="black"/>
<path d="M316.784 16.4249C307.918 11.0424 298.235 9.03894 288.075 9.03894C262.89 9.03894 210.556 9.1129 210.556 9.1129V118.656C210.556 118.656 261.302 118.656 286.166 118.656C313.049 118.656 324.953 107.254 331.212 97.5417C335.684 90.679 338.489 82.8544 339.399 74.7002C340.904 62.5874 340.427 50.6404 335.838 39.1646C332.211 29.6447 325.498 21.6332 316.784 16.4249ZM305.688 75.753C303.238 84.9854 295.344 91.7068 282.641 91.7068C277.456 91.7068 275.969 91.6051 270.389 91.7068C261.752 91.7804 253.115 91.7068 244.469 91.7068H242.753L242.313 91.3557V36.7734L242.753 36.4319C242.753 36.4319 268.672 36.0165 281.779 36.2657C297.51 36.2657 303.017 44.2149 305.046 50.1145C307.826 58.3998 308.05 67.337 305.688 75.753Z" fill="black"/>
</g>
<defs>
<clipPath id="clip0_344_4764">
<rect width="710" height="120" fill="white"/>
</clipPath>
</defs>
</svg>
