<svg width="179" height="30" viewBox="0 0 179 30" fill="none" xmlns="http://www.w3.org/2000/svg">
<g clip-path="url(#clip0_245_461)">
<path d="M171.721 2.7029H174.632C174.92 2.69301 175.208 2.73363 175.482 2.82292C175.629 2.87002 175.766 2.94877 175.881 3.05373C175.996 3.1572 176.086 3.28488 176.147 3.42762C176.201 3.57528 176.229 3.73163 176.229 3.88925C176.24 4.10458 176.196 4.31904 176.1 4.51243C175.997 4.69932 175.834 4.8464 175.638 4.93021L175.578 4.95793C175.67 4.98563 175.763 5.01793 175.853 5.05486C175.954 5.09983 176.04 5.1727 176.1 5.26488C176.161 5.35667 176.196 5.46384 176.199 5.57418C176.214 5.78653 176.199 5.99888 176.199 6.21123V6.53664H175.082V5.84421C175.081 5.79389 175.075 5.7438 175.066 5.69421C175.059 5.63937 175.036 5.58814 174.997 5.54876C174.959 5.50777 174.909 5.48159 174.854 5.47495C174.777 5.46106 174.7 5.45409 174.623 5.45416H172.815V6.53896H171.7L171.721 2.7029ZM172.839 4.5494H174.443C174.542 4.54945 174.64 4.54249 174.738 4.5286C174.817 4.52387 174.893 4.49119 174.951 4.4363C175.008 4.38156 175.045 4.30776 175.053 4.22853C175.064 4.12653 175.064 4.02359 175.053 3.92159C175.04 3.84735 175.006 3.77864 174.953 3.72538C174.899 3.67211 174.83 3.63806 174.755 3.62845C174.69 3.61853 174.625 3.61312 174.561 3.61228H172.85L172.839 4.5494Z" fill="#5940BE"/>
<path d="M173.944 9.2118C172.881 9.21495 171.851 8.84928 171.028 8.17715C170.204 7.50501 169.639 6.56806 169.43 5.52614C169.22 4.48423 169.378 3.40191 169.878 2.46377C170.378 1.52564 171.187 0.789805 172.169 0.38184C173.15 -0.0261236 174.242 -0.0809808 175.26 0.226651C176.277 0.534283 177.156 1.18534 177.747 2.06875C178.337 2.95215 178.604 4.01316 178.5 5.07082C178.395 6.12848 177.928 7.11726 177.176 7.86846C176.317 8.72424 175.156 9.20696 173.944 9.2118ZM173.944 0.577151C173.007 0.576112 172.098 0.900191 171.373 1.49414C170.647 2.0881 170.151 2.91513 169.967 3.83432C169.784 4.75352 169.925 5.70795 170.366 6.53492C170.807 7.36191 171.522 8.01023 172.387 8.36942C173.254 8.7286 174.217 8.7764 175.114 8.50466C176.011 8.23292 176.786 7.65847 177.308 6.87923C177.828 6.09998 178.063 5.16417 177.971 4.23131C177.88 3.29846 177.467 2.42629 176.804 1.76349C176.044 1.00731 175.016 0.581799 173.944 0.579462V0.577151Z" fill="#5940BE"/>
<path d="M155.969 2.01974H147.177C143.852 2.01974 139.459 2.95914 137.368 5.83275L137.347 5.86042L139.295 8.14775C140.691 9.97116 141.626 11.5038 141.626 11.5038L141.917 11.2222C143.302 9.70343 146.159 9.17722 147.508 9.17722H155.06C156.645 9.17722 158.165 9.80679 159.285 10.9275C160.405 12.0482 161.035 13.568 161.035 15.1529V16.7685C161.035 18.3534 160.405 19.8734 159.285 20.9941C158.165 22.1147 156.645 22.7443 155.06 22.7443H149.43C144.221 22.7443 143.621 20.3139 140.24 14.5851C136.858 8.85637 132.544 2.0105 123.063 2.0105H113.257C109.707 2.0105 106.302 3.42091 103.791 5.93148C101.281 8.44204 99.8701 11.8471 99.8701 15.3976V16.5216C99.8701 20.0721 101.281 23.4772 103.791 25.9877C106.302 28.4983 109.707 29.9086 113.257 29.9086H121.218C124.491 29.9086 128.604 28.96 131.712 25.2255C131.971 24.9578 132.955 23.6283 132.955 23.6283L133.308 23.1021C133.308 23.1021 131.332 20.0807 129.552 16.9256C127.554 13.3849 126.196 13.2072 125.506 13.2072H115.021V19.0491H126.444L126.591 19.1991V19.3537C126.591 20.2561 126.007 21.0202 125.089 21.6618C124.098 22.3752 122.903 22.7521 121.682 22.7374H114.138C113.357 22.7378 112.582 22.5837 111.859 22.2845C111.136 21.9853 110.479 21.5465 109.926 20.9933C109.373 20.44 108.934 19.7831 108.634 19.0602C108.335 18.3373 108.181 17.5626 108.182 16.7801V15.1252C108.181 14.3428 108.335 13.5678 108.634 12.8448C108.934 12.1218 109.372 11.4647 109.926 10.9113C110.479 10.3579 111.136 9.91887 111.859 9.61935C112.582 9.31981 113.357 9.16567 114.138 9.16567H123.747C128.26 9.16567 130.342 12.7386 133.072 17.3248C135.803 21.911 139.824 29.9017 149.424 29.9017H155.969C159.52 29.9017 162.925 28.4913 165.435 25.9808C167.945 23.4702 169.356 20.0652 169.356 16.5147V15.3907C169.352 11.843 167.94 8.44204 165.429 5.93498C162.919 3.4279 159.516 2.01973 155.969 2.01974Z" fill="#5940BE"/>
<path d="M7.98832 2.26898H0.0830078V29.6548H7.98832V2.26898Z" fill="black"/>
<path d="M96.6548 2.26898H88.7495V29.6548H96.6548V2.26898Z" fill="black"/>
<path d="M20.6274 10.2551V10.0428L20.7382 10.1674L20.6274 10.2551Z" fill="black"/>
<path d="M40.5626 2.28748V21.701L40.461 21.7796C39.8517 21.0455 29.202 8.12469 24.3827 2.26437H12.6875V29.6434H20.6366V10.052C20.7797 10.2135 20.6666 10.1674 20.7451 10.1651C25.9638 16.487 31.5794 23.3214 36.7842 29.6503H48.4587V2.28748H40.5626Z" fill="black"/>
<path d="M79.6648 4.10623C77.4353 2.7606 75.0001 2.25974 72.4451 2.25974C66.1115 2.25974 52.9507 2.27823 52.9507 2.27823V29.6641C52.9507 29.6641 65.7123 29.6641 71.965 29.6641C78.7255 29.6641 81.7191 26.8135 83.2932 24.3854C84.4178 22.6697 85.1231 20.7136 85.352 18.6751C85.7305 15.6468 85.6105 12.6601 84.4565 9.79115C83.5442 7.41118 81.8561 5.40831 79.6648 4.10623ZM76.8743 18.9383C76.2581 21.2464 74.2731 22.9267 71.0786 22.9267C69.7745 22.9267 69.4006 22.9013 67.9973 22.9267C65.8254 22.9451 63.6534 22.9267 61.4792 22.9267H61.0476L60.9368 22.8389V9.19334L61.0476 9.10797C61.0476 9.10797 67.5657 9.00411 70.8617 9.06643C74.8178 9.06643 76.2027 11.0537 76.7128 12.5286C77.4121 14.6 77.4684 16.8342 76.8743 18.9383Z" fill="black"/>
</g>
<defs>
<clipPath id="clip0_245_461">
<rect width="178.55" height="30" fill="white"/>
</clipPath>
</defs>
</svg>
