<svg width="180" height="31" viewBox="0 0 180 31" fill="none" xmlns="http://www.w3.org/2000/svg">
<g clip-path="url(#clip0_161_782)">
<path d="M172.362 3.48266H175.284C175.573 3.47273 175.861 3.51351 176.137 3.60314C176.284 3.6504 176.422 3.72946 176.537 3.83481C176.653 3.93866 176.743 4.06682 176.804 4.21009C176.859 4.3583 176.887 4.51524 176.887 4.67344C176.898 4.88958 176.853 5.10484 176.757 5.29895C176.654 5.48653 176.49 5.63415 176.293 5.71829L176.233 5.74612C176.326 5.77391 176.419 5.80633 176.509 5.8434C176.61 5.88854 176.696 5.96168 176.757 6.0542C176.818 6.14635 176.853 6.25391 176.857 6.36467C176.871 6.5778 176.857 6.79094 176.857 7.00408V7.33072H175.735V6.63571C175.734 6.5852 175.728 6.5349 175.719 6.48514C175.712 6.43008 175.689 6.37867 175.65 6.33915C175.612 6.298 175.561 6.27172 175.506 6.26506C175.429 6.25112 175.352 6.24413 175.275 6.24419H173.46V7.33304H172.341L172.362 3.48266ZM173.484 5.33605H175.093C175.193 5.33611 175.292 5.32912 175.39 5.31518C175.47 5.31043 175.546 5.27762 175.604 5.22253C175.661 5.1676 175.698 5.09352 175.706 5.01399C175.717 4.91161 175.717 4.80829 175.706 4.7059C175.693 4.63138 175.659 4.56243 175.606 4.50896C175.551 4.4555 175.482 4.42131 175.407 4.41168C175.342 4.40171 175.277 4.39628 175.212 4.39544H173.495L173.484 5.33605Z" fill="#D2BDFB"/>
<path d="M174.593 10.0157C173.526 10.0189 172.492 9.65188 171.666 8.97723C170.839 8.30259 170.272 7.36213 170.062 6.31632C169.851 5.27052 170.01 4.18416 170.512 3.24253C171.013 2.30089 171.826 1.56232 172.811 1.15284C173.796 0.74335 174.892 0.688288 175.914 0.997068C176.935 1.30585 177.817 1.95934 178.41 2.84604C179.002 3.73274 179.27 4.79771 179.166 5.85932C179.061 6.92092 178.592 7.91339 177.837 8.66739C176.975 9.52637 175.81 10.0109 174.593 10.0157ZM174.593 1.34888C173.653 1.34783 172.74 1.67312 172.013 2.26929C171.284 2.86546 170.786 3.69558 170.601 4.6182C170.418 5.54083 170.559 6.49882 171.002 7.32888C171.444 8.15894 172.162 8.80969 173.03 9.17022C173.9 9.53075 174.867 9.57871 175.767 9.30596C176.667 9.03321 177.445 8.45662 177.969 7.67446C178.492 6.89231 178.727 5.95301 178.635 5.01667C178.543 4.08034 178.129 3.20492 177.463 2.53965C176.701 1.78064 175.669 1.35354 174.593 1.3512V1.34888Z" fill="#D2BDFB"/>
<path d="M156.551 2.79688H147.727C144.388 2.79688 139.979 3.7398 137.88 6.62413L137.859 6.65189L139.815 8.94775C141.216 10.778 142.154 12.3162 142.154 12.3162L142.446 12.0336C143.837 10.5092 146.705 9.98106 148.058 9.98106H155.638C157.229 9.98106 158.755 10.613 159.879 11.7378C161.004 12.8627 161.636 14.3883 161.636 15.979V17.6007C161.636 19.1915 161.004 20.7171 159.879 21.842C158.755 22.9668 157.229 23.5987 155.638 23.5987H149.988C144.759 23.5987 144.157 21.1593 140.763 15.4092C137.369 9.65902 133.039 2.7876 123.522 2.7876H113.68C110.116 2.7876 106.698 4.20328 104.178 6.72322C101.658 9.24315 100.243 12.6609 100.243 16.2246V17.3529C100.243 20.9166 101.658 24.3344 104.178 26.8543C106.698 29.3742 110.116 30.7899 113.68 30.7899H121.67C124.956 30.7899 129.084 29.8377 132.204 26.0893C132.463 25.8205 133.451 24.4861 133.451 24.4861L133.806 23.9578C133.806 23.9578 131.822 20.9252 130.035 17.7583C128.03 14.2045 126.667 14.026 125.974 14.026H115.45V19.8897H126.916L127.063 20.0402V20.1955C127.063 21.1013 126.477 21.8682 125.556 22.5122C124.56 23.2283 123.362 23.6067 122.136 23.5919H114.564C113.78 23.5921 113.002 23.4376 112.276 23.1373C111.551 22.8368 110.891 22.3965 110.336 21.8411C109.781 21.2859 109.34 20.6266 109.04 19.901C108.739 19.1754 108.585 18.3976 108.585 17.6124V15.9513C108.585 15.1658 108.739 14.388 109.04 13.6623C109.34 12.9366 109.78 12.2771 110.336 11.7216C110.891 11.1661 111.55 10.7255 112.276 10.4248C113.002 10.1242 113.78 9.96946 114.564 9.96946H124.209C128.738 9.96946 130.828 13.5558 133.568 18.1591C136.31 22.7624 140.345 30.7829 149.981 30.7829H156.551C160.115 30.7829 163.532 29.3672 166.052 26.8473C168.572 24.3274 169.988 20.9097 169.988 17.3459V16.2177C169.984 12.6568 168.566 9.24315 166.047 6.72672C163.527 4.21029 160.112 2.79688 156.551 2.79688Z" fill="#D2BDFB"/>
<path d="M8.0183 3.04712H0.0834961V30.5351H8.0183V3.04712Z" fill="white"/>
<path d="M97.0153 3.04712H89.0806V30.5351H97.0153V3.04712Z" fill="white"/>
<path d="M20.7046 11.063V10.8499L20.8157 10.975L20.7046 11.063Z" fill="#D2BDFB"/>
<path d="M40.714 3.06567V22.5517L40.612 22.6305C40.0004 21.8937 29.311 8.92466 24.4737 3.04248H12.7349V30.5235H20.7136V10.8591C20.8573 11.0213 20.7437 10.975 20.8226 10.9726C26.0607 17.3181 31.6972 24.1781 36.9215 30.5306H48.6395V3.06567H40.714Z" fill="white"/>
<path d="M79.9618 4.89123C77.7239 3.54058 75.2797 3.03784 72.7151 3.03784C66.3579 3.03784 53.1479 3.05639 53.1479 3.05639V30.5444C53.1479 30.5444 65.9572 30.5444 72.2332 30.5444C79.0189 30.5444 82.0237 27.6833 83.6037 25.2461C84.7325 23.524 85.4404 21.5606 85.6702 19.5144C86.0501 16.4749 85.9297 13.477 84.7713 10.5974C83.8556 8.20851 82.1612 6.19816 79.9618 4.89123ZM77.1608 19.7786C76.5424 22.0953 74.5499 23.7818 71.3435 23.7818C70.0346 23.7818 69.6593 23.7564 68.2507 23.7818C66.0707 23.8004 63.8906 23.7818 61.7082 23.7818H61.275L61.1639 23.6938V9.99731L61.275 9.91162C61.275 9.91162 67.8175 9.80739 71.1258 9.86994C75.0966 9.86994 76.4867 11.8646 76.9987 13.345C77.7006 15.4241 77.7571 17.6667 77.1608 19.7786Z" fill="white"/>
</g>
<defs>
<clipPath id="clip0_161_782">
<rect width="179.216" height="30" fill="white" transform="translate(0 0.799805)"/>
</clipPath>
</defs>
</svg>
