<svg width="18" height="19" viewBox="0 0 18 19" fill="none" xmlns="http://www.w3.org/2000/svg">
<path d="M0.295999 6.7658H4.02738V18.7678H0.295999V6.7658ZM2.16179 0.799805C3.35438 0.799805 4.32358 1.769 4.32358 2.9636C4.32358 4.157 3.35438 5.1262 2.16179 5.1262C0.966395 5.1262 0 4.157 0 2.9636C0 1.769 0.966395 0.799805 2.16179 0.799805Z" fill="white"/>
<path d="M6.36719 6.76571H9.94517V8.40691H9.99617C10.4942 7.46291 11.7114 6.46851 13.5256 6.46851C17.3029 6.46851 18.0001 8.95351 18.0001 12.1851V18.7677H14.2716V12.9311C14.2716 11.5389 14.2473 9.74871 12.3332 9.74871C10.392 9.74871 10.0958 11.2661 10.0958 12.8311V18.7677H6.36719V6.76571Z" fill="white"/>
</svg>
